<svg width="32" height="33" viewBox="0 0 32 33" fill="none" xmlns="http://www.w3.org/2000/svg">
<circle cx="16" cy="16" r="16" fill="#24252F"/>
<path fill-rule="evenodd" clip-rule="evenodd" d="M17.5817 28.9048C24.0154 28.1244 29 22.6443 29 16C29 13.1928 28.1102 10.5934 26.5973 8.46851L28.8721 6.49513C30.8378 9.15276 32 12.4406 32 16C32 24.1898 25.8468 30.9424 17.9113 31.887L17.5817 28.9048ZM14.3135 28.8916C7.93053 28.0647 3 22.6082 3 16C3 8.8203 8.8203 3 16 3C18.969 3 21.7055 3.99529 23.8941 5.67042L25.6973 3.27251C23.0067 1.21936 19.6458 0 16 0C7.16344 0 0 7.16344 0 16C0 24.1835 6.14377 30.9321 14.0705 31.8848L14.3135 28.8916Z" fill="#BD00FF"/>
<path fill-rule="evenodd" clip-rule="evenodd" d="M22.2463 11.5797L16.5 15.9999L16 15.4999L21.1645 9.86589L21.7115 9.37764C22.1233 9.01006 22.7551 9.04589 23.1227 9.45767C23.4903 9.86945 23.4544 10.5012 23.0426 10.8688L22.2463 11.5797Z" fill="#BD00FF"/>
<path fill-rule="evenodd" clip-rule="evenodd" d="M16 16C15.8153 16 15.6422 16.0501 15.4938 16.1374L15 27C15 27.5523 15.4477 28 16 28C16.5523 28 17 27.5523 17 27L16.5062 16.1374C16.3578 16.0501 16.1847 16 16 16Z" fill="#BD00FF"/>
<circle cx="16" cy="16" r="1" fill="white"/>
<path d="M24.7481 6.30243L24.9944 6.07923L26.0488 6.17185C26.1405 6.17787 26.2203 6.18029 26.2883 6.17911C26.3567 6.17845 26.4169 6.17036 26.469 6.15482C26.5215 6.1388 26.5692 6.11148 26.6118 6.07285C26.6591 6.02993 26.6902 5.98218 26.7048 5.9296C26.72 5.87654 26.7199 5.82299 26.7044 5.76893C26.6895 5.71439 26.6606 5.66344 26.6177 5.61608C26.5728 5.56661 26.5237 5.53251 26.4703 5.5138C26.417 5.49508 26.3625 5.49265 26.307 5.50651C26.2516 5.52038 26.198 5.55068 26.1464 5.59741L25.8524 5.27296C25.9582 5.1771 26.0717 5.11782 26.193 5.09513C26.3143 5.07244 26.4354 5.08494 26.5562 5.13262C26.6771 5.1803 26.7885 5.26045 26.8906 5.37307C26.9955 5.48886 27.0663 5.60824 27.103 5.73122C27.1407 5.85426 27.1452 5.97239 27.1165 6.08562C27.0878 6.19885 27.0269 6.29767 26.9337 6.38208C26.8727 6.4374 26.8014 6.47991 26.72 6.50959C26.6391 6.5398 26.5346 6.55728 26.4067 6.56205C26.2793 6.56634 26.1147 6.55874 25.913 6.53926L25.4678 6.51283L25.4568 6.52284L26.072 7.20175L25.7926 7.45499L24.7481 6.30243Z" fill="white"/>
<path d="M16.024 32.0298C15.9118 32.0291 15.8034 32.0103 15.699 31.9734C15.5953 31.9364 15.5023 31.8764 15.4199 31.7933C15.3375 31.7102 15.2722 31.6001 15.2239 31.4631C15.1763 31.326 15.1525 31.1577 15.1525 30.9581C15.1532 30.7749 15.1742 30.6112 15.2154 30.467C15.2573 30.3221 15.3169 30.1992 15.3944 30.0984C15.4725 29.9975 15.5659 29.9208 15.6745 29.8683C15.7832 29.815 15.905 29.7884 16.04 29.7884C16.1855 29.7884 16.3141 29.8168 16.4256 29.8736C16.5371 29.9297 16.6266 30.006 16.6941 30.1026C16.7623 30.1992 16.8034 30.3075 16.8176 30.4276H16.3627C16.345 30.3516 16.3077 30.2919 16.2509 30.2486C16.1941 30.2053 16.1238 30.1836 16.04 30.1836C15.8979 30.1836 15.79 30.2454 15.7161 30.369C15.6429 30.4925 15.6056 30.6605 15.6042 30.8729H15.6191C15.6518 30.8082 15.6958 30.7532 15.7512 30.7077C15.8074 30.6616 15.8709 30.6264 15.9419 30.6023C16.0137 30.5774 16.0893 30.565 16.1689 30.565C16.2981 30.565 16.4132 30.5955 16.514 30.6566C16.6149 30.717 16.6944 30.8001 16.7527 30.9059C16.8109 31.0117 16.84 31.1328 16.84 31.2692C16.84 31.4169 16.8056 31.5483 16.7367 31.6634C16.6685 31.7784 16.573 31.8686 16.4501 31.9339C16.3279 31.9986 16.1859 32.0305 16.024 32.0298ZM16.0218 31.6676C16.0929 31.6676 16.1564 31.6506 16.2125 31.6165C16.2686 31.5824 16.3127 31.5362 16.3446 31.478C16.3766 31.4197 16.3926 31.3544 16.3926 31.282C16.3926 31.2095 16.3766 31.1445 16.3446 31.087C16.3134 31.0295 16.2701 30.9837 16.2147 30.9496C16.1593 30.9155 16.0961 30.8984 16.025 30.8984C15.9718 30.8984 15.9224 30.9084 15.877 30.9283C15.8322 30.9482 15.7928 30.9759 15.7587 31.0114C15.7253 31.0469 15.699 31.0881 15.6799 31.1349C15.6607 31.1811 15.6511 31.2305 15.6511 31.283C15.6511 31.3533 15.6671 31.4176 15.699 31.4759C15.7317 31.5341 15.7757 31.5806 15.8311 31.6154C15.8873 31.6502 15.9508 31.6676 16.0218 31.6676Z" fill="white"/>
</svg>
